<svg xmlns="http://www.w3.org/2000/svg" viewBox="258 308 96 96" width="96" height="96" fill="currentColor" role="img" aria-label="Wellness Shop"><path d="M 339.17 362.68 C 336.76 362.12 331.93 361.25 325.61 361.29 C 325.57 360.61 325.5 359.9 325.39 359.19 C 325.36 358.84 325.29 358.57 325.23 358.4 C 324.76 355.88 323.85 353.19 322.52 350.35 C 322.5 350.29 322.48 350.25 322.46 350.21 C 322.45 350.18 322.43 350.17 322.41 350.14 C 321.22 347.63 319.71 345 317.84 342.25 C 317.84 342.25 317.84 342.24 317.84 342.24 C 317.84 342.24 317.84 342.24 317.84 342.24 C 315.42 338.66 312.45 334.89 308.91 330.91 L 307.48 329.32 C 307.17 328.98 306.74 328.8 306.27 328.79 C 305.81 328.79 305.38 328.99 305.07 329.34 L 303.7 330.92 C 294.21 341.59 288.8 350.84 287.46 358.56 C 287.42 358.7 287.39 358.88 287.37 359.07 C 286.94 361.89 287.05 364.51 287.73 366.91 C 282.18 367.04 277.18 366.21 273.19 363.81 C 272.62 361.37 272.32 358.84 272.32 356.23 C 272.32 337.63 287.45 322.5 306.05 322.5 C 324.66 322.5 339.79 337.63 339.79 356.23 C 339.79 358.44 339.57 360.59 339.17 362.68 M 335.34 372.96 C 335.17 372.84 334.98 372.75 334.77 372.69 C 334.48 372.62 329.91 371.59 322.84 371.58 C 323.37 370.82 323.86 370.01 324.27 369.11 C 324.91 367.67 325.3 366.14 325.5 364.53 C 331.54 364.48 336.16 365.3 338.4 365.81 C 337.65 368.33 336.62 370.72 335.34 372.96 M 314.88 368 C 317.93 367.02 320.3 365.89 322.04 364.66 C 322.12 364.61 322.19 364.55 322.27 364.49 C 322.26 364.54 322.26 364.59 322.25 364.64 C 322.08 365.75 321.78 366.8 321.34 367.79 C 320.64 369.33 319.64 370.62 318.48 371.71 C 315.46 371.89 312.14 372.27 308.59 372.96 C 308.36 373.01 308.14 373.05 307.91 373.1 L 307.91 371.97 C 308.25 371.48 309.81 369.63 314.88 368 M 307.96 361.53 C 307.96 361.51 307.97 361.5 307.97 361.48 L 307.97 361.47 C 307.97 361.47 307.98 361.47 307.98 361.46 C 308.09 361.24 308.91 359.87 313.58 358.36 C 316.92 357.28 319.33 356.05 320.84 354.68 C 321.47 356.4 321.92 358.05 322.17 359.6 C 322.12 359.93 321.9 360.62 320.89 361.51 C 319.78 362.49 317.72 363.71 313.89 364.94 C 312.13 365.5 310.71 366.11 309.56 366.71 C 308.94 367.04 308.39 367.36 307.91 367.68 L 307.91 361.7 C 307.93 361.64 307.95 361.59 307.96 361.53 M 307.91 347.54 L 307.91 334.67 C 310.61 337.8 312.96 340.81 314.91 343.66 C 314.72 344 313.9 345.01 310.54 346.29 C 309.48 346.69 308.62 347.11 307.91 347.54 M 307.97 351.76 C 308.04 351.59 308.57 350.48 311.68 349.29 C 313.98 348.42 315.66 347.48 316.73 346.47 C 317.77 348.16 318.66 349.79 319.42 351.36 C 319.26 351.95 317.83 353.61 312.59 355.3 C 310.55 355.96 309.04 356.65 307.91 357.32 L 307.91 351.94 C 307.93 351.88 307.96 351.82 307.97 351.76 M 329.31 380.64 C 328.36 380.49 326.69 380.26 324.46 380.14 C 318.54 379.8 308.7 380.18 298.15 384.53 C 296.32 385.29 294.47 386.16 292.61 387.17 C 288.71 385.47 285.2 383.06 282.23 380.09 C 282.48 380.1 282.73 380.12 282.99 380.12 C 283.17 380.12 283.34 380.14 283.53 380.14 C 287.87 380.14 292.64 379.38 298.71 378.21 C 299.73 378.01 300.79 377.8 301.88 377.59 C 302.71 377.42 303.54 377.25 304.43 377.08 C 304.52 377.06 304.61 377.04 304.7 377.02 C 305.22 376.92 305.75 376.81 306.29 376.7 C 306.29 376.7 306.3 376.7 306.31 376.7 C 306.83 376.59 307.37 376.48 307.91 376.38 C 308.35 376.29 308.77 376.21 309.21 376.12 C 309.95 375.98 310.67 375.85 311.39 375.73 C 313.25 375.43 315.04 375.21 316.74 375.06 C 317.8 374.97 318.8 374.91 319.79 374.88 C 325.53 374.63 329.99 375.14 332.29 375.5 C 332.84 375.59 333.27 375.67 333.57 375.73 C 332.31 377.5 330.88 379.14 329.31 380.64 M 306.05 389.97 C 302.83 389.97 299.71 389.51 296.76 388.66 C 299.61 387.31 302.44 386.28 305.17 385.51 C 310.3 384.05 315.09 383.48 319.04 383.34 C 321.8 383.24 324.14 383.34 325.91 383.49 C 320.34 387.56 313.47 389.97 306.05 389.97 M 293.83 366.44 C 295.02 366.99 296.35 367.51 297.86 368 C 298.63 368.25 299.31 368.5 299.93 368.75 C 302.99 370.01 304.26 371.25 304.7 371.8 L 304.7 373.74 C 304.4 373.8 304.09 373.86 303.79 373.93 C 302.14 374.26 300.58 374.57 299.1 374.86 C 296.72 373.77 294.32 372.14 292.64 369.81 C 292.18 369.17 291.76 368.49 291.43 367.74 C 291.28 367.41 291.17 367.07 291.05 366.72 C 290.8 366.01 290.61 365.27 290.49 364.5 C 291.41 365.18 292.52 365.83 293.83 366.44 M 299.16 358.36 C 303.32 359.7 304.43 360.93 304.7 361.35 L 304.7 367.6 C 303.62 366.89 302.18 366.14 300.26 365.43 C 299.82 365.26 299.35 365.1 298.85 364.94 C 291.51 362.57 290.66 360.27 290.55 359.65 C 290.79 358.07 291.22 356.39 291.86 354.64 C 293.36 356.02 295.79 357.27 299.16 358.36 M 297.79 343.6 C 297.8 343.59 297.8 343.57 297.8 343.55 C 299.73 340.73 302.04 337.76 304.7 334.67 L 304.7 347.46 C 304.02 347.06 303.2 346.66 302.2 346.29 C 298.64 344.93 297.92 343.86 297.79 343.6 M 301.06 349.29 C 303.71 350.3 304.48 351.25 304.7 351.62 L 304.7 357.25 C 303.59 356.6 302.12 355.94 300.15 355.3 C 294.69 353.54 293.36 351.8 293.31 351.28 C 293.31 351.26 293.31 351.24 293.31 351.21 C 294.06 349.67 294.93 348.07 295.95 346.41 C 297.02 347.45 298.71 348.4 301.06 349.29 M 279.19 376.61 C 277.22 374.02 275.62 371.15 274.46 368.05 C 278.09 369.54 282.2 370.14 286.6 370.14 C 287.39 370.14 288.2 370.11 289.02 370.07 C 290.34 372.51 292.17 374.37 294.18 375.78 C 288.15 376.84 283.55 377.26 279.19 376.61 M 306.05 319.28 C 285.68 319.28 269.1 335.86 269.1 356.23 C 269.1 359.31 269.48 362.29 270.2 365.15 C 270.2 365.17 270.2 365.19 270.21 365.21 C 271.48 370.28 273.8 374.93 276.93 378.94 C 276.98 379.01 277.04 379.08 277.09 379.14 C 281.03 384.11 286.21 388.04 292.16 390.47 C 292.2 390.48 292.24 390.5 292.28 390.51 C 296.54 392.23 301.19 393.19 306.05 393.19 C 315.51 393.19 324.13 389.6 330.67 383.73 C 330.79 383.67 330.88 383.57 330.98 383.48 C 336.25 378.64 340.14 372.3 341.92 365.14 C 341.92 365.14 341.92 365.14 341.92 365.13 C 341.93 365.12 341.92 365.12 341.93 365.11 C 342.63 362.27 343.01 359.29 343.01 356.23 C 343.01 335.86 326.43 319.28 306.05 319.28 "/><path d="M 306.05 398.95 C 282.5 398.95 263.34 379.79 263.34 356.23 C 263.34 332.68 282.5 313.52 306.05 313.52 C 329.61 313.52 348.77 332.68 348.77 356.23 C 348.77 379.79 329.61 398.95 306.05 398.95 M 351.99 356.23 C 351.99 330.91 331.38 310.3 306.05 310.3 C 280.73 310.3 260.12 330.91 260.12 356.23 C 260.12 381.56 280.73 402.16 306.05 402.16 C 331.38 402.16 351.99 381.56 351.99 356.23 "/></svg>